<svg width="94" height="94" viewBox="0 0 94 94" fill="none" xmlns="http://www.w3.org/2000/svg">
<g id="cookies-svgrepo-com 1" clip-path="url(#clip0_2_32)">
<g id="cookie" >
<path  id="Vector" d="M88.0574 45.5973L83.5886 46.4911C82.1015 46.7885 80.6068 46.015 79.9909 44.6291L75.204 33.8584C74.7989 32.9465 73.9962 32.2723 73.0283 32.0301L70.5345 31.4068C69.0915 31.0461 68.0793 29.7497 68.0793 28.2622V10.9795C68.0793 10.1718 67.7777 9.39321 67.2337 8.79617L61.2129 2.18936C55.7846 0.470372 49.9331 -0.296499 43.8495 0.104103C20.4679 1.64445 1.52677 20.6648 0.100058 44.0533C-1.56459 71.346 20.0771 94 47.0101 94C72.6991 94 93.561 73.387 93.9899 47.8003L90.1429 45.8768C89.4981 45.5542 88.7643 45.456 88.0574 45.5973Z" fill="#FFE6A1"/>
<g id="Group">
<path id="Vector_2" d="M61.5962 79.4137C61.3109 79.4137 61.0299 79.3973 60.7458 79.3922C58.965 81.3899 56.3796 82.655 53.4928 82.655C49.2408 82.655 45.6357 79.9213 44.3144 76.1195C38.4983 73.8177 33.2523 70.3933 28.8435 66.1068C28.1765 66.3078 27.4838 66.4481 26.7513 66.4481C22.7234 66.4481 19.4582 63.1829 19.4582 59.155C19.4582 57.7483 19.8753 56.4465 20.5652 55.3324C20.5159 55.2441 20.4632 55.1584 20.4142 55.0697C15.3552 54.7267 11.3549 50.5252 11.3549 45.3792C11.3549 42.3465 12.744 39.6394 14.9197 37.8559C14.7136 36.0694 14.5962 34.2559 14.5962 32.4137C14.5962 23.1699 17.2756 14.557 21.8844 7.28813C8.74163 15.6211 0.0100937 30.2864 0.0100937 47C0.0100937 72.9574 21.0527 94 47.0101 94C63.7237 94 78.3888 85.2685 86.722 72.1257C79.4531 76.7345 70.8402 79.4137 61.5962 79.4137Z" fill="#FFD796"/>
<path id="Vector_3" d="M36.4757 38.8966C38.7134 38.8966 40.5274 37.0825 40.5274 34.8448C40.5274 32.6071 38.7134 30.7931 36.4757 30.7931C34.238 30.7931 32.4239 32.6071 32.4239 34.8448C32.4239 37.0825 34.238 38.8966 36.4757 38.8966Z" fill="#FFD796"/>
<path id="Vector_4" d="M79.4239 65.6379C81.6616 65.6379 83.4757 63.8239 83.4757 61.5862C83.4757 59.3485 81.6616 57.5344 79.4239 57.5344C77.1862 57.5344 75.3722 59.3485 75.3722 61.5862C75.3722 63.8239 77.1862 65.6379 79.4239 65.6379Z" fill="#FFD796"/>
<path id="Vector_5" d="M42.5532 65.6379C44.1195 65.6379 45.3893 64.3681 45.3893 62.8017C45.3893 61.2354 44.1195 59.9656 42.5532 59.9656C40.9868 59.9656 39.717 61.2354 39.717 62.8017C39.717 64.3681 40.9868 65.6379 42.5532 65.6379Z" fill="#FFD796"/>
<path id="Vector_6" d="M64.4326 39.7068C65.999 39.7068 67.2687 38.437 67.2687 36.8706C67.2687 35.3042 65.999 34.0344 64.4326 34.0344C62.8662 34.0344 61.5964 35.3042 61.5964 36.8706C61.5964 38.437 62.8662 39.7068 64.4326 39.7068Z" fill="#FFD796"/>
<path id="Vector_7" d="M53.0878 14.5862C54.6541 14.5862 55.9239 13.3164 55.9239 11.75C55.9239 10.1836 54.6541 8.91385 53.0878 8.91385C51.5214 8.91385 50.2516 10.1836 50.2516 11.75C50.2516 13.3164 51.5214 14.5862 53.0878 14.5862Z" fill="#FFD796"/>
</g>
<g id="Group_2">
<path id="Vector_8" d="M44.6517 41.7467L42.7781 44.8694C41.6582 46.7358 42.6598 49.1538 44.7714 49.6816L50.3482 51.0758C52.085 51.51 53.8449 50.4542 54.2789 48.7174L54.9169 46.1654C55.046 45.6491 55.046 45.1094 54.9169 44.5931L54.2424 41.8948C53.8229 40.2162 52.1588 39.1631 50.4622 39.5024L46.7955 40.2357C45.8999 40.4151 45.1217 40.9636 44.6517 41.7467Z" fill="#B97850"/>
<path id="Vector_9" d="M54.0063 61.8111L52.0523 65.0677C51.0809 66.6868 51.6934 68.7902 53.3821 69.6346L59.6026 72.7448C61.4573 73.6723 63.6938 72.6435 64.1969 70.6318L64.8376 68.0689L65.5865 65.0728C66.0526 63.2082 64.8031 61.3497 62.9001 61.0778L57.2438 60.2696C55.9531 60.0853 54.6772 60.6928 54.0063 61.8111Z" fill="#B97850"/>
<path id="Vector_10" d="M19.904 42.4759L17.5193 46.4505C16.754 47.7259 16.9551 49.3585 18.0067 50.4103L21.7597 54.1635C23.1258 55.5296 25.376 55.4049 26.5829 53.8963L29.8004 49.8743C30.4323 49.0845 30.6592 48.0448 30.4138 47.0633L29.68 44.128C29.3761 42.9127 28.3994 41.9815 27.1711 41.7356L23.319 40.9653C21.9758 40.6965 20.6088 41.3013 19.904 42.4759Z" fill="#B97850"/>
<path id="Vector_11" d="M33.1003 16.1597L31.2614 19.2247C30.1946 21.0028 31.0486 23.3116 33.0159 23.9674L37.0063 25.2976C38.171 25.6857 39.455 25.3826 40.3232 24.5146L42.4711 22.3667C43.2762 21.5616 43.5998 20.3931 43.3237 19.2886L42.7619 17.0415C42.4012 15.5983 41.1046 14.586 39.6171 14.586H35.8795C34.7413 14.5862 33.6862 15.1836 33.1003 16.1597Z" fill="#B97850"/>
<path id="Vector_12" d="M72.2471 41.2113L70.3709 43.0874C69.1052 44.3531 69.1052 46.4055 70.3709 47.6714L71.2891 48.5896C72.2757 49.5762 73.7827 49.8207 75.0307 49.1967L80.3397 46.5423C81.6985 45.8628 82.4033 44.3309 82.0348 42.857L81.7943 41.8952C81.3748 40.2166 79.7107 39.1635 78.0141 39.5028L73.9036 40.3249C73.2759 40.4501 72.6996 40.7587 72.2471 41.2113Z" fill="#B97850"/>
<path id="Vector_13" d="M60.1947 18.0759L58.0421 20.9462C57.2513 22.0004 57.1777 23.4288 57.8557 24.5588L59.8475 27.8784C60.7996 29.4653 62.8851 29.9342 64.4249 28.9078L68.4695 26.2113C70.0179 25.1792 70.381 23.0581 69.2646 21.5695L67.0659 18.6379C66.6702 18.1104 66.1233 17.7161 65.4978 17.5077L63.8128 16.9459C62.4891 16.5044 61.0317 16.9597 60.1947 18.0759Z" fill="#B97850"/>
<path id="Vector_14" d="M32.4574 69.2855L30.3409 71.9311C28.9821 73.6295 29.6487 76.1576 31.6683 76.9656L34.5112 78.1028C35.2842 78.412 36.1461 78.412 36.9189 78.1028L40.1094 76.8265C42.0209 76.062 42.7447 73.732 41.6027 72.0189L41.0547 71.1969C40.7417 70.7275 40.3119 70.3482 39.8074 70.0957L36.4384 68.4113C35.0708 67.7277 33.4121 68.0922 32.4574 69.2855Z" fill="#B97850"/>
</g>
<g id="Group_3">
<path id="Vector_15" d="M25.7817 53.7785L22.0287 50.0254C20.9771 48.9738 20.7758 47.3411 21.5412 46.0659L23.9259 42.0913C24.1294 41.7523 24.3981 41.4771 24.6954 41.2407L23.3192 40.9656C21.976 40.6971 20.6088 41.3018 19.904 42.4763L17.5193 46.4509C16.754 47.7263 16.9551 49.3588 18.0067 50.4106L21.7597 54.1637C23.026 55.4299 25.0415 55.3994 26.2917 54.1892C26.1125 54.0704 25.94 53.9369 25.7817 53.7785Z" fill="#A5694B"/>
<path id="Vector_16" d="M40.2526 24.1437L36.2622 22.8137C34.2951 22.1579 33.4407 19.8491 34.5077 18.071L36.3466 15.006C36.4401 14.85 36.5636 14.7217 36.6795 14.5862H35.8794C34.7409 14.5862 33.6858 15.1836 33.0999 16.1599L31.2611 19.2247C30.194 21.0028 31.0481 23.3116 33.0155 23.9674L37.0059 25.2976C38.1706 25.6857 39.4547 25.3826 40.3229 24.5145L40.6249 24.2125C40.5008 24.1868 40.3748 24.1844 40.2526 24.1437Z" fill="#A5694B"/>
<path id="Vector_17" d="M53.4236 50.1439L47.8467 48.7497C45.735 48.2216 44.7334 45.8039 45.8535 43.9375L47.727 40.8147C47.9501 40.443 48.2464 40.1292 48.5881 39.8775L46.7955 40.236C45.9001 40.4151 45.1215 40.9638 44.6517 41.747L42.7781 44.8698C41.6582 46.7362 42.6598 49.1541 44.7714 49.6819L50.3482 51.0762C51.523 51.3699 52.698 50.9711 53.4763 50.1518C53.4586 50.1474 53.4412 50.1483 53.4236 50.1439Z" fill="#A5694B"/>
<path id="Vector_18" d="M62.8752 27.598L60.8834 24.2785C60.2053 23.1484 60.279 21.7204 61.0697 20.6659L63.2223 17.7958C63.4581 17.4813 63.7507 17.2349 64.068 17.0305L63.8126 16.9455C62.4889 16.5044 61.0315 16.9597 60.1943 18.0757L58.0419 20.9459C57.2511 22.0002 57.1775 23.4284 57.8555 24.5584L59.8473 27.878C60.7963 29.4596 62.8704 29.9287 64.4085 28.9158C63.7922 28.6594 63.2466 28.2169 62.8752 27.598Z" fill="#A5694B"/>
<path id="Vector_19" d="M73.8904 48.3737C72.6245 47.1078 72.6245 45.0556 73.8904 43.7897L75.7666 41.9135C76.2189 41.4612 76.7952 41.1526 77.423 41.0272L80.8828 40.3352C80.1425 39.6317 79.0856 39.2882 78.0139 39.5026L73.9035 40.3247C73.2759 40.4503 72.6996 40.7587 72.2471 41.2111L70.3709 43.0873C69.1052 44.3531 69.1052 46.4054 70.3709 47.6712L71.2891 48.5894C72.2146 49.5149 73.5915 49.7574 74.7893 49.2729L73.8904 48.3737Z" fill="#A5694B"/>
<path id="Vector_20" d="M57.3975 69.3626C55.7088 68.5183 55.0961 66.4149 56.0677 64.7957L58.0217 61.5393C58.278 61.1125 58.6402 60.7888 59.0397 60.5265L57.2442 60.27C55.9531 60.0855 54.6773 60.6928 54.0065 61.8111L52.0525 65.0677C51.0811 66.6868 51.6936 68.7902 53.3823 69.6345L59.6028 72.7448C60.8426 73.3648 62.2418 73.0971 63.1908 72.2596L57.3975 69.3626Z" fill="#A5694B"/>
<path id="Vector_21" d="M37.7526 77.561L34.9096 76.4238C32.8903 75.6162 32.2237 73.0878 33.5822 71.3893L35.6987 68.7437C35.8331 68.5758 35.984 68.4289 36.1434 68.2945C34.8388 67.7949 33.345 68.1757 32.4574 69.2855L30.3409 71.9311C28.9821 73.6295 29.6487 76.1576 31.6683 76.9656L34.5112 78.1028C35.2842 78.412 36.1461 78.412 36.9189 78.1028L38.0529 77.6491C37.9525 77.62 37.8502 77.6001 37.7526 77.561Z" fill="#A5694B"/>
</g>
<path id="Vector_22" d="M12.9737 66.4466C12.7308 66.4466 12.4829 66.3914 12.2505 66.2757C11.4496 65.8753 11.125 64.902 11.5256 64.1012L13.1464 60.8599C13.547 60.059 14.5179 59.7377 15.3209 60.135C16.1217 60.5356 16.4463 61.5087 16.0457 62.3095L14.425 65.5509C14.1409 66.1189 13.5689 66.4466 12.9737 66.4466Z" fill="#C98850"/>
<path id="Vector_23" d="M42.148 87.5171H40.5272C39.6322 87.5171 38.9064 86.7923 38.9064 85.8963C38.9064 85.0006 39.6322 84.2756 40.5272 84.2756H42.148C43.043 84.2756 43.7687 85.0004 43.7687 85.8963C43.7687 86.7923 43.043 87.5171 42.148 87.5171Z" fill="#925F4A"/>
<path id="Vector_24" d="M35.6636 56.7241C35.4207 56.7241 35.1729 56.6688 34.9405 56.5531C34.1396 56.1525 33.815 55.1793 34.2156 54.3786L35.8364 51.1373C36.2361 50.3381 37.2071 50.0152 38.0109 50.4125C38.8117 50.8131 39.1363 51.7861 38.7357 52.587L37.1149 55.8283C36.8309 56.3965 36.2587 56.7241 35.6636 56.7241Z" fill="#C98850"/>
<g id="Group_4">
<path id="Vector_25" d="M25.9396 30.7931C25.6967 30.7931 25.4488 30.7378 25.2164 30.6222L21.9751 29.0014C21.1742 28.6008 20.8496 27.6277 21.2502 26.8269C21.6499 26.0277 22.6217 25.7031 23.4247 26.1021L26.6661 27.7227C27.4669 28.1233 27.7915 29.0963 27.3909 29.8971C27.1069 30.4654 26.5346 30.7931 25.9396 30.7931Z" fill="#925F4A"/>
<path id="Vector_26" d="M45.3895 8.10329H42.1482C41.2532 8.10329 40.5274 7.37846 40.5274 6.48252C40.5274 5.58658 41.2532 4.86176 42.1482 4.86176H45.3895C46.2845 4.86176 47.0103 5.58658 47.0103 6.48252C47.0103 7.37846 46.2845 8.10329 45.3895 8.10329Z" fill="#925F4A"/>
</g>
<path id="Vector_27" d="M51.8739 32.4137C51.2787 32.4137 50.7066 32.0861 50.4226 31.5179L48.8018 28.2766C48.4012 27.4757 48.7258 26.5023 49.5266 26.1021C50.3291 25.7031 51.3016 26.0277 51.7011 26.8269L53.3219 30.0683C53.7225 30.8691 53.3979 31.8425 52.597 32.2427C52.3642 32.3584 52.1168 32.4137 51.8739 32.4137Z" fill="#C98850"/>
<g id="Group_5">
<path id="Vector_28" d="M7.39625 40.3497C7.17833 40.2423 6.9806 40.0831 6.82289 39.8766C6.28129 39.1635 6.42064 38.1469 7.1339 37.6055L10.0204 35.4141C10.7329 34.8724 11.7487 35.013 12.2914 35.7251C12.833 36.4382 12.6937 37.4548 11.9804 37.9962L9.09413 40.1874C8.58796 40.5715 7.92996 40.6126 7.39625 40.3497Z" fill="#925F4A"/>
<path id="Vector_29" d="M68.0791 58.3448C67.6644 58.3448 67.2496 58.1866 66.9333 57.87L63.692 54.6287C63.0589 53.9957 63.0589 52.9699 63.692 52.3369C64.325 51.7039 65.3507 51.7039 65.9838 52.3369L69.2251 55.5782C69.8581 56.2113 69.8581 57.237 69.2251 57.87C68.9084 58.1866 68.4937 58.3448 68.0791 58.3448Z" fill="#925F4A"/>
</g>
<path id="Vector_30" d="M71.3205 74.5517C70.9057 74.5517 70.491 74.3935 70.1747 74.077C69.5416 73.4439 69.5416 72.4182 70.1747 71.7852L71.7954 70.1644C72.4285 69.5314 73.4542 69.5314 74.0872 70.1644C74.7203 70.7974 74.7203 71.8232 74.0872 72.4562L72.4665 74.077C72.1498 74.3935 71.7352 74.5517 71.3205 74.5517Z" fill="#C98850"/>
</g>
<g id="crumbs" ref="crumbs">
<g id="Group_6">
<path id="Vector_31" d="M74.5393 7.97539V11.8849C74.5393 12.9813 75.6987 13.7308 76.7647 13.3235L81.6332 11.4641C82.2492 11.2287 82.6533 10.6589 82.6533 10.0254V7.97539C82.6533 7.11967 81.9266 6.42578 81.0304 6.42578H76.162C75.266 6.42578 74.5393 7.11967 74.5393 7.97539Z" fill="#FFE6A1"/>
<path id="Vector_32" d="M78.0088 20.1915L76.9732 27.1134C76.7296 28.7417 77.8608 30.2681 79.5496 30.5906L82.5217 31.1581C83.8114 31.4045 85.1292 30.8832 85.8588 29.8383L86.9765 28.2374C87.5554 27.408 87.6815 26.3634 87.3149 25.4303L83.9293 16.8096C83.5081 15.7375 82.0678 15.4396 81.2198 16.2493L78.927 18.4384C78.4303 18.9125 78.1082 19.5278 78.0088 20.1915Z" fill="#FFE6A1"/>
</g>
<g id="Group_7">
<path id="Vector_33" d="M86.1445 28.4055L83.1724 27.838C81.4834 27.5154 80.3524 25.989 80.596 24.3609L81.6315 17.4391C81.724 16.8217 82.0255 16.2579 82.4641 15.7991C82.0237 15.7778 81.5714 15.9132 81.2198 16.2488L78.9268 18.4381C78.4303 18.9122 78.108 19.5274 78.0089 20.1911L76.9734 27.1129C76.7298 28.7413 77.8609 30.2676 79.5498 30.5901L82.5218 31.1576C83.8114 31.4037 85.1293 30.8827 85.859 29.8377L86.8368 28.4373C86.6066 28.4417 86.3763 28.45 86.1445 28.4055Z" fill="#FFD796"/>
<path id="Vector_34" d="M80.0103 10.2243C78.9443 10.6314 77.7848 9.88186 77.7848 8.78565V6.42578H76.1619C75.2658 6.42578 74.5391 7.11967 74.5391 7.97539V11.8849C74.5391 12.9813 75.6985 13.7308 76.7645 13.3235L81.633 11.4641C82.249 11.2287 82.6531 10.6591 82.6531 10.0254V9.21501L80.0103 10.2243Z" fill="#FFD796"/>
<path id="Vector_35" d="M86.7079 35.5715L85.7487 37.4034C85.5203 37.8396 85.5203 38.353 85.7487 38.7892L86.1864 39.6255C86.623 40.4591 87.7258 40.7389 88.538 40.2219L91.1541 38.5567C91.6056 38.2691 91.8767 37.7854 91.8767 37.2674V35.5979C91.8767 34.5403 90.7916 33.7934 89.7408 34.1279L87.646 34.7946C87.2379 34.9243 86.9004 35.2038 86.7079 35.5715Z" fill="#FFD796"/>
</g>
</g>
</g>
<defs>
<clipPath id="clip0_2_32">
<rect width="94" height="94" fill="white"/>
</clipPath>
</defs>
</svg>
